Coordinates
version=1
nRows=32
nColumns=12
inDegrees=yes

Units are S.I. units (second, meters, Newtons, ...)
Angles are in degrees

endheader
time	SC_y	SC_z	SC_x	AC_y	AC_z	AC_x	GH_y	GH_z	GH_yy	EL_x	PS_y
       0.0              -12.55          35.29          76.32          58.08         -3.056         -10.64         -116.5           61.2          151.3          32.49          50.67
   0.02015              -12.56          35.28          76.32          58.08         -3.054         -10.64         -116.5           61.2          151.3          32.49          50.67
   0.04029              -12.56          35.28          76.31          58.08         -3.052         -10.63         -116.5          61.19          151.3          32.49          50.68
   0.06044              -12.57          35.28           76.3          58.08          -3.05         -10.63         -116.4          61.19          151.3          32.48          50.69
   0.08058              -12.58          35.28           76.3          58.07         -3.048         -10.62         -116.4          61.18          151.2          32.48          50.69
    0.1007              -12.58          35.28          76.29          58.07         -3.045         -10.62         -116.3          61.17          151.2          32.47           50.7
    0.1209              -12.59          35.28          76.28          58.07         -3.043         -10.61         -116.3          61.17          151.2          32.47          50.71
     0.141               -12.6          35.28          76.28          58.07          -3.04         -10.61         -116.2          61.16          151.2          32.47          50.72
    0.1612              -12.61          35.28          76.27          58.07         -3.037          -10.6         -116.2          61.15          151.1          32.46          50.73
    0.1813              -12.62          35.28          76.26          58.07         -3.034         -10.59         -116.1          61.14          151.1          32.45          50.74
    0.2015              -12.63          35.28          76.25          58.07         -3.031         -10.59         -116.0          61.13          151.1          32.45          50.75
    0.2216              -12.64          35.27          76.24          58.07         -3.027         -10.58         -116.0          61.12          151.0          32.44          50.76
    0.2417              -12.65          35.27          76.23          58.07         -3.023         -10.57         -115.9          61.11          151.0          32.43          50.77
    0.2619              -12.67          35.27          76.21          58.07         -3.019         -10.56         -115.8          61.09          150.9          32.43          50.79
     0.282              -12.68          35.27           76.2          58.07         -3.014         -10.55         -115.7          61.08          150.9          32.42           50.8
    0.3022               -12.7          35.27          76.18          58.07         -3.009         -10.54         -115.6          61.07          150.8          32.41          50.82
    0.3223              -12.71          35.26          76.17          58.07         -3.004         -10.53         -115.5          61.05          150.8           32.4          50.84
    0.3425              -12.73          35.26          76.15          58.07         -2.998         -10.52         -115.4          61.03          150.7          32.39          50.85
    0.3626              -12.75          35.26          76.13          58.07         -2.991         -10.51         -115.3          61.01          150.7          32.37          50.87
    0.3828              -12.78          35.26          76.11          58.07         -2.984         -10.49         -115.1          60.99          150.6          32.36           50.9
    0.4029               -12.8          35.25          76.09          58.07         -2.976         -10.47         -115.0          60.97          150.5          32.35          50.92
    0.4231              -12.83          35.25          76.06          58.07         -2.968         -10.46         -114.8          60.94          150.4          32.33          50.95
    0.4432              -12.86          35.25          76.04          58.07         -2.958         -10.44         -114.6          60.92          150.3          32.31          50.98
    0.4633              -12.89          35.24          76.01          58.07         -2.948         -10.42         -114.4          60.89          150.2          32.29          51.01
    0.4835              -12.92          35.24          75.97          58.07         -2.936         -10.39         -114.2          60.85          150.1          32.27          51.05
    0.5036              -12.96          35.23          75.93          58.07         -2.923         -10.37         -114.0          60.81          150.0          32.25          51.09
    0.5238              -13.01          35.23          75.89          58.07         -2.909         -10.34         -113.7          60.77          149.8          32.22          51.14
    0.5439              -13.06          35.22          75.84          58.07         -2.892          -10.3         -113.4          60.72          149.6          32.19          51.19
    0.5641              -13.12          35.21          75.79          58.07         -2.874         -10.26         -113.0          60.67          149.5          32.16          51.25
    0.5842              -13.18          35.21          75.73          58.07         -2.853         -10.22         -112.6          60.61          149.2          32.12          51.32
    0.6044              -13.26           35.2          75.66          58.07         -2.829         -10.17         -112.1          60.54          149.0          32.07          51.39
    0.6245              -13.34          35.19          75.58          58.07         -2.801         -10.11         -111.6          60.45          148.7          32.02          51.48
